<svg width="40" height="40" viewBox="0 0 40 40" fill="none" xmlns="http://www.w3.org/2000/svg">
<g clip-path="url(#clip0_92_252)">
<path d="M16.1125 29.22V15.885H14.53C13.3966 16.4892 12.3012 17.1621 11.25 17.9V19.6375C12.1875 18.995 13.6725 18.0875 14.395 17.695H14.425V29.22H16.1125ZM19.0825 25.9575C19.2 27.5575 20.5675 29.4725 23.34 29.4725C26.485 29.4725 28.34 26.8075 28.34 22.295C28.34 17.46 26.3875 15.625 23.4575 15.625C21.1425 15.625 18.965 17.305 18.965 20.1475C18.965 23.0475 21.025 24.5725 23.155 24.5725C25.02 24.5725 26.23 23.6325 26.6125 22.5975H26.68C26.67 25.8875 25.5275 28.0075 23.4175 28.0075C21.7575 28.0075 20.8975 26.8825 20.7925 25.9575H19.0825ZM26.465 20.165C26.465 21.905 25.0675 23.115 23.505 23.115C22.0025 23.115 20.645 22.1575 20.645 20.115C20.645 18.0575 22.1 17.09 23.565 17.09C25.1475 17.09 26.465 18.085 26.465 20.165Z" fill="black"/>
<path d="M8.75 0C9.08152 0 9.39946 0.131696 9.63388 0.366117C9.8683 0.600537 10 0.918479 10 1.25V2.5H30V1.25C30 0.918479 30.1317 0.600537 30.3661 0.366117C30.6005 0.131696 30.9185 0 31.25 0C31.5815 0 31.8995 0.131696 32.1339 0.366117C32.3683 0.600537 32.5 0.918479 32.5 1.25V2.5H35C36.3261 2.5 37.5979 3.02678 38.5355 3.96447C39.4732 4.90215 40 6.17392 40 7.5V35C40 36.3261 39.4732 37.5979 38.5355 38.5355C37.5979 39.4732 36.3261 40 35 40H5C3.67392 40 2.40215 39.4732 1.46447 38.5355C0.526784 37.5979 0 36.3261 0 35V7.5C0 6.17392 0.526784 4.90215 1.46447 3.96447C2.40215 3.02678 3.67392 2.5 5 2.5H7.5V1.25C7.5 0.918479 7.6317 0.600537 7.86612 0.366117C8.10054 0.131696 8.41848 0 8.75 0ZM2.5 10V35C2.5 35.663 2.76339 36.2989 3.23223 36.7678C3.70107 37.2366 4.33696 37.5 5 37.5H35C35.663 37.5 36.2989 37.2366 36.7678 36.7678C37.2366 36.2989 37.5 35.663 37.5 35V10H2.5Z" fill="black"/>
</g>
<defs>
<clipPath id="clip0_92_252">
<rect width="40" height="40" fill="white"/>
</clipPath>
</defs>
</svg>
