<svg width="49" height="40" viewBox="0 0 49 40" fill="none" xmlns="http://www.w3.org/2000/svg">
<path fill-rule="evenodd" clip-rule="evenodd" d="M13.733 30.714C21.9365 29.714 27.5849 29.8 35.7992 30.749C36.3941 30.821 36.9377 31.0701 37.3296 31.4504C37.7215 31.8307 37.9352 32.3165 37.9313 32.818C37.9313 33.298 37.7336 33.764 37.3764 34.128C36.754 34.7626 36.1162 35.3868 35.4637 36H38.6288C38.8278 35.802 39.0279 35.6 39.2305 35.395C39.9414 34.6676 40.3292 33.7576 40.3283 32.819C40.3283 30.794 38.5569 29.049 36.1276 28.769C27.7191 27.798 21.8418 27.705 13.3866 28.736C10.9321 29.035 9.16797 30.807 9.16797 32.846C9.16797 33.751 9.52152 34.646 10.1915 35.371C10.3892 35.585 10.5846 35.795 10.7787 36.001H13.8672C13.2601 35.3945 12.6679 34.7777 12.091 34.151C11.7482 33.7758 11.5633 33.3168 11.5649 32.845C11.5649 31.768 12.4925 30.865 13.733 30.714ZM24.7481 21C25.6924 21 26.6275 20.8448 27.4999 20.5433C28.3724 20.2417 29.1651 19.7998 29.8328 19.2426C30.5005 18.6855 31.0302 18.0241 31.3916 17.2961C31.753 16.5681 31.939 15.7879 31.939 15C31.939 14.2121 31.753 13.4319 31.3916 12.7039C31.0302 11.9759 30.5005 11.3145 29.8328 10.7574C29.1651 10.2002 28.3724 9.75825 27.4999 9.45672C26.6275 9.15519 25.6924 9 24.7481 9C22.841 9 21.012 9.63214 19.6634 10.7574C18.3149 11.8826 17.5573 13.4087 17.5573 15C17.5573 16.5913 18.3149 18.1174 19.6634 19.2426C21.012 20.3679 22.841 21 24.7481 21ZM24.7481 23C27.291 23 29.7297 22.1571 31.5277 20.6569C33.3258 19.1566 34.3359 17.1217 34.3359 15C34.3359 12.8783 33.3258 10.8434 31.5277 9.34315C29.7297 7.84285 27.291 7 24.7481 7C22.2053 7 19.7666 7.84285 17.9685 9.34315C16.1705 10.8434 15.1603 12.8783 15.1603 15C15.1603 17.1217 16.1705 19.1566 17.9685 20.6569C19.7666 22.1571 22.2053 23 24.7481 23Z" fill="#0B0B0B"/>
<path fill-rule="evenodd" clip-rule="evenodd" d="M24.7481 38C36.6621 38 46.3206 29.941 46.3206 20C46.3206 10.059 36.6621 2 24.7481 2C12.8341 2 3.17557 10.059 3.17557 20C3.17557 29.941 12.8341 38 24.7481 38ZM24.7481 40C37.9864 40 48.7176 31.046 48.7176 20C48.7176 8.954 37.9864 0 24.7481 0C11.5098 0 0.778625 8.954 0.778625 20C0.778625 31.046 11.5098 40 24.7481 40Z" fill="#0B0B0B"/>
</svg>
