<svg width="46" height="50" viewBox="0 0 50 50" fill="none" xmlns="http://www.w3.org/2000/svg">
<path fill-rule="evenodd" clip-rule="evenodd" d="M12.8255 30.714C20.502 29.714 25.7876 29.8 33.4743 30.749C34.031 30.821 34.5396 31.0701 34.9063 31.4504C35.2731 31.8307 35.4731 32.3165 35.4694 32.818C35.4694 33.298 35.2844 33.764 34.9502 34.128C34.3677 34.7626 33.7709 35.3868 33.1603 36H36.1221C36.3083 35.802 36.4956 35.6 36.6851 35.395C37.3503 34.6676 37.7132 33.7576 37.7124 32.819C37.7124 30.794 36.0548 29.049 33.7816 28.769C25.9132 27.798 20.4134 27.705 12.5013 28.736C10.2045 29.035 8.55371 30.807 8.55371 32.846C8.55371 33.751 8.88455 34.646 9.51146 35.371C9.69651 35.585 9.87931 35.795 10.061 36.001H12.9511C12.3829 35.3945 11.8288 34.7777 11.289 34.151C10.9682 33.7758 10.7952 33.3168 10.7967 32.845C10.7967 31.768 11.6647 30.865 12.8255 30.714ZM23.1331 21C24.0167 21 24.8917 20.8448 25.7081 20.5433C26.5245 20.2417 27.2663 19.7998 27.8911 19.2426C28.516 18.6855 29.0116 18.0241 29.3498 17.2961C29.6879 16.5681 29.862 15.7879 29.862 15C29.862 14.2121 29.6879 13.4319 29.3498 12.7039C29.0116 11.9759 28.516 11.3145 27.8911 10.7574C27.2663 10.2002 26.5245 9.75825 25.7081 9.45672C24.8917 9.15519 24.0167 9 23.1331 9C21.3484 9 19.6369 9.63214 18.375 10.7574C17.1131 11.8826 16.4041 13.4087 16.4041 15C16.4041 16.5913 17.1131 18.1174 18.375 19.2426C19.6369 20.3679 21.3484 21 23.1331 21V21ZM23.1331 23C25.5126 23 27.7946 22.1571 29.4772 20.6569C31.1597 19.1566 32.105 17.1217 32.105 15C32.105 12.8783 31.1597 10.8434 29.4772 9.34315C27.7946 7.84285 25.5126 7 23.1331 7C20.7536 7 18.4715 7.84285 16.789 9.34315C15.1064 10.8434 14.1612 12.8783 14.1612 15C14.1612 17.1217 15.1064 19.1566 16.789 20.6569C18.4715 22.1571 20.7536 23 23.1331 23V23Z" fill="#0F0F0F"/>
<path fill-rule="evenodd" clip-rule="evenodd" d="M24.0972 47.5C35.7253 47.5 45.1519 37.4262 45.1519 25C45.1519 12.5738 35.7253 2.5 24.0972 2.5C12.4692 2.5 3.04253 12.5738 3.04253 25C3.04253 37.4262 12.4692 47.5 24.0972 47.5ZM24.0972 50C37.0178 50 47.4913 38.8075 47.4913 25C47.4913 11.1925 37.0178 0 24.0972 0C11.1767 0 0.703125 11.1925 0.703125 25C0.703125 38.8075 11.1767 50 24.0972 50Z" fill="#0F0F0F"/>
</svg>
